<?xml version="1.0" encoding="utf-8"?>
<svg xmlns="http://www.w3.org/2000/svg" viewBox="38.3845 40.8545 427.1634 497.5816" width="427.163px" height="497.582px">
  <g transform="matrix(0.10000000149011612, 0, 0, -0.10000000149011612, 1.9851839542388916, 539.5578002929688)" fill="white">
    <path d="M2360 4979 c-210 -24 -449 -132 -617 -280 -373 -328 -488 -881 -278 -1337 128 -276 384 -506 670 -601 123 -40 215 -54 365 -54 205 0 336 30 515 118 288 143 503 412 593 745 23 86 26 112 26 275 -1 161 -3 190 -26 275 -93 344 -307 605 -620 755 -200 96 -404 129 -628 104z m337 -320 c220 -50 426 -207 537 -410 229 -418 68 -940 -356 -1154 -131 -66 -244 -89 -410 -82 -155 5 -218 20 -343 82 -170 84 -290 206 -376 381 -115 235 -118 486 -7 724 168 363 557 550 955 459z"/>
    <path d="M 2300 2293 C 1238 2245 555 1777 383 979 C 357 859 358 541 384 456 C 447 249 583 107 787 38 L 855 15 L 2465 12 C 3897 10 4084 11 4153 25 C 4379 71 4547 226 4616 456 C 4642 541 4642 858 4617 980 C 4516 1458 4217 1830 3753 2056 C 3388 2234 2866 2319 2300 2293 Z M 2765 1985 C 3218 1960 3594 1841 3869 1635 C 4074 1481 4205 1303 4287 1065 L 4325 955 C 4325 955 4342.25 889.097 4346.004 855.908 C 4350.464 816.478 4349.642 737.143 4349.642 737.143 C 4349.642 737.143 4348.856 662.568 4344.813 626.123 C 4343.134 610.983 4341.371 590.317 4337.742 570.674 C 4332.358 541.532 4325 515 4325 515 C 4325 515 4320.439 500.857 4314.221 488.139 C 4310.013 479.534 4304.725 472.866 4300.807 466.754 C 4293.865 455.925 4290.008 445.797 4283.503 437.158 C 4276.018 427.215 4265.41 418.573 4248.922 401.97 C 4220.212 373.061 4185.333 346.269 4156.394 332.764 C 4156.394 332.764 4139.201 326.369 4132.493 323.307 C 4123.868 319.369 4105 315 4105 315 L 2500 315 L 895 315 C 893.619 312.928 842.506 328.316 842.539 328.365 C 811.13 339.51 787.25 363.513 765.807 388.231 C 742.919 414.613 719.042 439.563 702 469 L 687.436 516.131 C 687.436 516.131 675 587.187 675 623.281 C 675 657.187 675 725 675 725 C 675 972 686 1023 774 1205 C 1010 1687 1533 1954 2315 1990 C 2481 1997 2541 1997 2765 1985 Z"/>
  </g>
</svg>