<?xml version="1.0" standalone="no"?>
<!DOCTYPE svg PUBLIC "-//W3C//DTD SVG 20010904//EN"
 "http://www.w3.org/TR/2001/REC-SVG-20010904/DTD/svg10.dtd">
<svg version="1.0" xmlns="http://www.w3.org/2000/svg"
 width="512.000000pt" height="512.000000pt" viewBox="0 0 512.000000 512.000000"
 preserveAspectRatio="xMidYMid meet">
  
<g transform="translate(0.000000,512.000000) scale(0.100000,-0.100000)"
fill="#FFFFFF" opacity="0.87" stroke="none">
<path d="M2283 4785 c-157 -42 -275 -151 -335 -308 -15 -38 -22 -88 -28 -192
-8 -168 -26 -220 -101 -290 -121 -113 -252 -122 -414 -29 -100 58 -170 83
-254 90 -129 12 -280 -45 -376 -141 -52 -52 -241 -369 -272 -457 -9 -24 -18
-84 -21 -135 -5 -113 18 -201 78 -291 47 -70 82 -100 200 -171 147 -89 194
-162 194 -301 1 -78 -2 -90 -33 -148 -40 -73 -61 -93 -172 -159 -193 -114
-277 -257 -267 -456 3 -51 12 -111 21 -135 31 -86 220 -403 272 -456 96 -97
246 -154 375 -142 85 7 142 27 249 87 133 74 223 85 328 39 62 -27 137 -102
164 -163 18 -42 24 -79 29 -192 6 -104 13 -154 28 -192 61 -159 179 -267 339
-308 81 -21 465 -21 546 0 160 42 278 149 339 308 15 38 22 90 27 192 9 169
27 220 102 290 83 77 180 107 280 86 29 -7 93 -34 141 -60 145 -81 235 -102
357 -81 97 16 200 69 264 135 63 64 249 382 278 474 25 83 25 199 -1 282 -38
125 -112 211 -250 293 -156 92 -204 165 -204 306 0 141 48 214 204 306 138 82
212 168 250 293 26 83 26 199 1 281 -29 92 -215 412 -276 474 -96 97 -246 154
-375 142 -85 -7 -142 -27 -249 -87 -133 -74 -223 -85 -328 -39 -62 27 -137
102 -164 163 -18 42 -24 79 -29 192 -6 104 -13 154 -28 192 -61 159 -179 267
-339 308 -78 20 -474 20 -550 0z m467 -1448 c209 -57 367 -171 481 -345 88
-134 124 -258 124 -432 0 -226 -75 -408 -231 -564 -310 -310 -812 -312 -1123
-5 -161 159 -236 340 -236 569 0 174 36 297 125 434 118 180 303 306 520 352
80 17 262 12 340 -9z"/>
</g>
</svg>