<?xml version="1.0" standalone="no"?>
<!DOCTYPE svg PUBLIC "-//W3C//DTD SVG 20010904//EN"
 "http://www.w3.org/TR/2001/REC-SVG-20010904/DTD/svg10.dtd">
<svg version="1.0" xmlns="http://www.w3.org/2000/svg"
 width="500.000000pt" height="500.000000pt" viewBox="0 0 500.000000 500.000000"
 preserveAspectRatio="xMidYMid meet">

<g transform="translate(0.000000,500.000000) scale(0.100000,-0.100000)"
fill="black" fill-opacity="0.87">
<path d="M2400 4980 c-104 -10 -182 -28 -272 -61 -375 -138 -630 -421 -735
-817 -34 -127 -39 -362 -10 -484 22 -95 67 -218 108 -301 138 -272 411 -492
714 -573 145 -39 375 -45 525 -14 204 42 392 139 541 278 182 171 289 362 345
614 22 98 22 336 0 436 -51 233 -161 438 -318 593 -240 236 -578 360 -898 329z"/>
<path d="M2190 2284 c-314 -37 -458 -62 -633 -113 -353 -103 -661 -296 -852
-534 -159 -198 -280 -456 -320 -681 -20 -118 -20 -379 0 -478 25 -118 66 -192
160 -284 88 -85 161 -130 260 -161 57 -17 136 -18 1690 -18 1534 0 1634 1
1695 18 97 27 186 81 271 166 84 84 128 161 154 272 23 100 20 370 -6 504 -59
311 -252 642 -486 837 -242 203 -529 336 -878 408 -250 52 -355 62 -695 65
-179 2 -341 1 -360 -1z"/>
</g>
</svg>
