<?xml version="1.0" standalone="no"?>
<!DOCTYPE svg PUBLIC "-//W3C//DTD SVG 20010904//EN"
 "http://www.w3.org/TR/2001/REC-SVG-20010904/DTD/svg10.dtd">
<svg version="1.0" xmlns="http://www.w3.org/2000/svg"
 width="512.000000pt" height="512.000000pt" viewBox="0 0 512.000000 512.000000"
 preserveAspectRatio="xMidYMid meet">

<g transform="translate(0.000000,512.000000) scale(0.100000,-0.100000)"
fill="black" stroke="none">
<path d="M2283 4785 c-157 -42 -275 -151 -335 -308 -15 -38 -22 -88 -28 -192
-8 -168 -26 -220 -101 -290 -121 -113 -252 -122 -414 -29 -100 58 -170 83
-254 90 -129 12 -280 -45 -376 -141 -52 -52 -241 -369 -272 -457 -9 -24 -18
-84 -21 -135 -10 -200 74 -343 269 -457 153 -90 203 -165 203 -306 1 -78 -2
-90 -33 -148 -40 -73 -61 -93 -172 -159 -193 -114 -277 -257 -267 -456 3 -51
12 -112 21 -136 30 -85 220 -402 272 -455 95 -97 246 -154 375 -142 85 7 142
27 249 87 133 74 223 85 328 39 62 -27 137 -102 164 -163 18 -42 24 -79 29
-192 6 -104 13 -154 28 -192 61 -159 179 -267 339 -308 81 -21 465 -21 546 0
160 41 278 149 339 308 15 38 22 88 28 192 5 113 11 150 29 192 27 61 102 136
164 163 105 46 195 35 329 -39 145 -81 235 -102 357 -81 97 16 200 69 264 135
63 64 249 382 278 474 25 83 25 199 -1 282 -38 126 -112 212 -251 293 -153 90
-203 165 -203 306 0 141 50 216 203 306 139 81 213 167 251 293 26 83 26 199
1 282 -29 91 -215 410 -276 473 -95 97 -246 154 -375 142 -85 -7 -142 -27
-249 -87 -133 -74 -223 -85 -328 -39 -62 27 -137 102 -164 163 -18 42 -24 79
-29 192 -6 104 -13 154 -28 192 -61 159 -179 267 -339 308 -78 20 -474 20
-550 0z m523 -331 c62 -46 68 -63 75 -217 7 -158 29 -240 91 -345 51 -86 152
-182 244 -229 117 -61 181 -77 304 -77 130 0 186 15 342 96 109 57 119 60 163
53 68 -10 101 -47 201 -220 136 -236 130 -288 -49 -391 -116 -68 -213 -168
-266 -275 -156 -316 -44 -673 266 -853 179 -103 185 -155 49 -391 -99 -171
-124 -201 -180 -216 -54 -15 -84 -7 -179 47 -136 76 -212 98 -347 98 -98 0
-126 -4 -191 -27 -204 -70 -347 -210 -416 -409 -21 -59 -27 -100 -32 -215 -7
-154 -13 -171 -75 -217 -26 -20 -41 -21 -246 -21 -205 0 -220 1 -246 21 -62
46 -68 63 -75 217 -5 115 -11 156 -32 215 -69 199 -212 339 -416 409 -65 23
-93 27 -191 27 -135 0 -211 -22 -347 -98 -95 -54 -125 -62 -179 -47 -56 15
-81 45 -180 216 -136 236 -130 288 49 391 447 257 447 871 0 1128 -179 103
-185 155 -49 391 100 173 133 210 201 220 44 7 54 4 163 -53 156 -81 212 -96
342 -96 174 0 328 63 449 184 126 125 181 255 188 440 5 153 9 174 40 211 47
55 67 59 295 56 191 -2 209 -4 234 -23z"/>
<path d="M2410 3346 c-284 -61 -508 -252 -601 -514 -125 -355 4 -736 319 -943
134 -88 258 -124 432 -124 226 0 408 75 564 231 156 156 231 338 231 564 0
174 -36 298 -124 432 -114 174 -272 288 -481 345 -78 21 -260 26 -340 9z m265
-321 c237 -62 393 -291 358 -529 -28 -194 -168 -351 -358 -401 -251 -65 -513
94 -580 350 -89 343 237 669 580 580z"/>
</g>
</svg>
