<svg width="255" height="150" viewBox="0 0 255 150" fill="none" xmlns="http://www.w3.org/2000/svg">
<path opacity="0.7" d="M7.06587 94.25C6.33254 93.1167 5.71587 91.9333 5.21587 90.7C4.7492 89.4667 4.51587 88.3167 4.51587 87.25C4.51587 86.45 4.71587 85.5 5.11587 84.4C5.51587 83.3 5.96587 82.1667 6.46587 81L23.4159 43.6C24.4825 43.3333 25.7159 43.2667 27.1159 43.4C28.5159 43.5333 29.8325 43.8 31.0659 44.2C32.3325 44.6 33.2992 45.1167 33.9659 45.75L23.3659 69C22.7325 70.4333 21.9659 72.15 21.0659 74.15C20.1659 76.1167 19.2159 78.0667 18.2159 80C17.2492 81.9 16.3325 83.4833 15.4659 84.75L15.7159 85.15C17.0159 85.05 18.4492 84.9667 20.0159 84.9C21.6159 84.8333 23.0992 84.7833 24.4659 84.75C25.8659 84.7167 26.8825 84.7 27.5159 84.7H41.0659C41.9325 84.7 42.7159 84.6833 43.4159 84.65C44.1492 84.6167 44.9659 84.6 45.8659 84.6H50.6659C50.7992 85.3333 50.8659 86.0667 50.8659 86.8C50.8992 87.5 50.9159 88.2 50.9159 88.9C50.9159 89.6 50.8659 90.45 50.7659 91.45C50.6659 92.4167 50.4825 93.3167 50.2159 94.15H45.8659C44.9659 94.15 44.1492 94.15 43.4159 94.15C42.7159 94.1167 41.9325 94.1 41.0659 94.1H30.1659C29.2325 94.1 28.2659 94.1333 27.2659 94.2C26.2992 94.2333 25.3492 94.25 24.4159 94.25H7.06587ZM30.0659 99.85C30.0659 98.9167 30.0825 97.95 30.1159 96.95C30.1492 95.95 30.1659 95 30.1659 94.1V85.95C30.1659 85.55 30.1492 84.8667 30.1159 83.9C30.0825 82.9 30.0659 82.1667 30.0659 81.7V74.8C30.0659 72.0333 30.7325 69.8667 32.0659 68.3C33.4325 66.7333 35.2992 65.95 37.6659 65.95H40.6159L41.1659 66.5V79C41.1659 79.9 41.1492 80.85 41.1159 81.85C41.0825 82.85 41.0659 83.8 41.0659 84.7V94.1C41.0659 95 41.0825 95.95 41.1159 96.95C41.1492 97.95 41.1659 98.9167 41.1659 99.85V107.5C40.2325 107.667 39.2825 107.767 38.3159 107.8C37.3825 107.867 36.4492 107.9 35.5159 107.9C34.6492 107.9 33.7492 107.867 32.8159 107.8C31.8825 107.767 30.9659 107.667 30.0659 107.5V99.85Z" fill="#222222"/>
<path d="M77.0823 69.701C75.7914 69.9424 74.4751 70.0178 73.1476 69.9257C72.3053 69.867 71.4376 69.7526 70.6246 69.5105C70.2419 69.4049 69.795 69.2366 69.5282 68.9309C71.4574 67.2828 74.3869 68.3673 76.4265 69.3771C76.6424 69.4851 76.8584 69.5931 77.0823 69.701Z" fill="#C2CAC2"/>
<path d="M187.472 54.6514C187.509 54.4204 187.458 54.2148 187.36 54.0576C187.342 53.8909 187.284 53.7249 187.155 53.5685C184.705 50.643 182.688 47.3618 181.191 43.859C180.434 42.0918 179.836 40.2586 179.339 38.4001C178.877 36.6757 178.454 34.9196 177.621 33.3278C174.605 27.5759 166.403 27.483 162.577 32.4069C160.933 34.5115 160.143 36.9845 159.704 39.5473C158.796 39.9022 157.773 39.9252 156.831 39.6449C155.922 39.3726 155.079 38.7335 154.56 37.9793C154.462 37.838 154.334 37.7284 154.19 37.6594C152.847 32.7006 152.08 27.5513 150.839 22.583C149.059 15.5109 146.036 8.13146 139.968 3.68794C133.691 -0.911976 125.274 -0.922293 118.332 2.12553C111.074 5.31308 105.853 11.9248 102.758 19.0533C99.7633 25.942 98.6502 33.358 98.1167 40.8056C98.0699 40.8779 98.0318 40.9581 98.0008 41.0454C97.9778 41.1089 97.9627 41.1653 97.9397 41.2209C97.9318 41.2367 97.8857 41.3566 97.8857 41.3566C97.8246 41.5003 97.7547 41.644 97.6856 41.7885C97.5547 42.0441 97.4157 42.3006 97.2601 42.5411C97.1744 42.6697 97.0894 42.8055 96.9957 42.9341C96.9799 42.9579 96.9799 42.95 96.9727 42.9659C96.9648 42.9738 96.9648 42.9738 96.9418 43.0064C96.8949 43.0627 96.8481 43.127 96.7933 43.1913C96.6059 43.4247 96.4027 43.6415 96.1836 43.8511C96.0819 43.9559 95.9803 44.0527 95.87 44.1496C95.8073 44.198 95.7525 44.2544 95.6898 44.3028C95.6818 44.3108 95.627 44.3512 95.5961 44.3838C95.3682 44.5616 95.1245 44.7244 94.8808 44.8784C94.6212 45.0332 94.3615 45.1801 94.0853 45.3111C94.0297 45.3357 93.9749 45.3603 93.9114 45.3849C93.9035 45.3929 93.801 45.4341 93.7772 45.4421C93.6351 45.5 93.4851 45.5493 93.335 45.5993C93.2874 45.6159 93.2405 45.6326 93.1929 45.6572C92.4895 44.2703 91.9584 42.7221 91.0755 41.5202C89.1146 38.8653 85.9509 38.6105 82.9538 39.4488C79.9092 40.2959 77.1504 42.1783 75.2418 44.6839C72.9672 47.6634 72.2662 51.2702 71.589 54.861C70.7125 59.4713 69.405 63.9767 67.5877 68.3067C67.4345 68.6664 67.5425 69.0061 67.76 69.2411C67.7846 69.2967 67.8251 69.3435 67.8656 69.3904C68.6206 71.0227 70.7927 71.3402 72.4067 71.5228C74.6416 71.7753 76.909 71.5673 79.0676 70.9401C79.1701 70.9068 79.2653 70.8655 79.336 70.8171L79.3439 70.8091C79.3757 70.8004 79.4074 70.7845 79.4384 70.7599C79.7576 70.8821 80.0775 70.9965 80.4038 71.0949H80.4117C80.4284 71.1664 80.4618 71.2291 80.5022 71.2997C81.8035 73.4004 84.0955 74.296 86.3454 75.0168C86.6074 78.7927 86.5923 82.5717 86.2986 86.3396C86.166 86.5079 86.1215 86.731 86.2128 87.0001C86.786 88.7388 87.7149 90.3203 89.005 91.6358C89.9966 92.6456 91.1819 93.3665 92.3918 94.0707C93.4231 97.7711 94.2012 101.531 94.6624 105.343C94.6084 105.455 94.5791 105.599 94.5894 105.757C94.7363 108.177 96.4162 110.074 98.528 111.13C100.032 111.878 101.663 112.132 103.308 112.243C103.317 112.29 103.302 112.338 103.318 112.393C104.028 115.281 104.397 118.229 104.433 121.206C104.437 121.468 104.567 121.681 104.76 121.828C105.386 123.892 107.367 125.236 109.37 125.889C111.994 126.747 115.215 126.541 117.348 128.534C117.767 128.933 118.035 129.35 118.209 129.8C118.211 129.959 118.253 130.093 118.326 130.203C118.528 130.986 118.5 131.836 118.562 132.748C118.651 134.01 119.043 135.203 119.725 136.265C120.384 137.295 121.222 138.14 122.162 138.873C121.871 142.307 121.589 145.749 121.298 149.184C121.231 149.995 122.546 150.333 122.868 149.574C123.597 147.816 125.402 146.94 126.661 145.611C127.599 144.621 128.269 143.238 128.131 141.897C128.807 140.379 129.715 139.008 130.889 137.823C132.149 136.573 133.614 135.75 135.149 134.894C136.386 134.2 137.645 133.411 138.428 132.193C139.484 130.55 139.092 128.746 138.882 126.931C138.828 126.471 138.821 126.034 138.855 125.621C138.878 125.549 138.893 125.469 138.892 125.39L138.891 125.318C139.359 122.056 142.523 120.128 145.546 118.915C148.829 117.597 152.728 116.538 154.408 113.091C155.109 111.66 155.387 110.004 155.736 108.395C155.862 108.267 155.93 108.09 155.943 107.876C155.948 107.725 155.955 107.582 155.96 107.431C156.313 106.052 156.794 104.751 157.755 103.689C157.913 103.647 158.063 103.549 158.188 103.397C161.4 99.4113 159.053 94.2057 159.399 89.6669C159.592 87.1629 160.885 85.4369 162.937 84.0968C164.691 82.9353 166.598 82.0025 168.044 80.4408C168.052 80.425 168.067 80.4162 168.075 80.4003C168.248 80.263 168.364 80.0471 168.375 79.7684C168.474 77.2977 168.572 74.8271 168.679 72.3556C168.765 72.3223 168.853 72.2897 168.939 72.2564C172.139 71.2243 176.156 71.6419 178.414 68.6624C178.546 68.4861 178.622 68.2861 178.627 68.0876C178.831 67.8939 178.93 67.5827 178.869 67.2659C178.508 65.405 178.148 63.5528 177.786 61.6918C178.047 61.5926 178.307 61.4854 178.561 61.4029C182.068 60.2255 186.829 58.9965 187.472 54.6514ZM165.69 75.4106C165.82 74.5595 166.318 73.8609 166.969 73.3274C166.904 74.8842 166.84 76.4419 166.776 78.0067C166.075 77.2866 165.538 76.4371 165.69 75.4106ZM173.491 65.5217C173.483 65.5058 173.476 65.4978 173.467 65.482V65.474C173.482 65.4343 173.489 65.3946 173.489 65.3462C173.496 65.2748 173.495 65.2033 173.502 65.1319C173.502 65.1239 173.502 65.1239 173.502 65.116C173.593 64.8524 173.788 64.5563 173.865 64.4356C174.439 63.5377 175.287 62.8978 176.224 62.3921C176.49 63.7219 176.748 65.0604 177.005 66.3902C176.216 66.2036 175.428 66.0242 174.639 65.8376C174.377 65.7781 173.637 65.7654 173.491 65.5217ZM105.965 118.43C105.8 116.368 105.476 114.325 105.002 112.307C105.533 112.323 106.058 112.331 106.582 112.339C107.726 112.37 109.146 112.285 110.171 112.913C111.317 113.627 110.251 114.532 109.512 115.043C108.129 116 106.939 117.122 105.965 118.43ZM92.1981 79.2198C92.2315 79.346 92.2807 79.4484 92.3458 79.535C91.9361 80.8433 90.5682 81.7682 89.5242 82.5383C89.0376 82.9027 88.5668 83.291 88.1278 83.6943C88.2389 80.9934 88.223 78.2933 88.0555 75.5884C89.8831 76.2442 91.7154 77.2255 92.1981 79.2198ZM73.1475 69.9255C72.3051 69.8667 71.4374 69.7524 70.6244 69.5103C70.2417 69.4047 69.7948 69.2364 69.528 68.9307C71.4572 67.2826 74.3868 68.367 76.4263 69.3769C76.6423 69.4849 76.8582 69.5928 77.0821 69.7008C75.792 69.9422 74.4749 70.0168 73.1475 69.9255ZM94.4528 95.3521C95.681 96.2547 96.6345 97.3845 96.7623 99.0501C96.8616 100.39 96.5075 101.658 95.993 102.881C95.6064 100.345 95.0848 97.8362 94.4528 95.3521ZM124.71 145.157C124.208 145.593 123.69 146.022 123.196 146.466C123.37 144.287 123.553 142.125 123.743 139.955C124.544 140.443 125.377 140.884 126.208 141.308C126.208 141.316 126.217 141.331 126.225 141.339C126.307 141.473 126.364 141.615 126.406 141.75C126.362 141.965 126.405 142.163 126.502 142.336C126.486 143.44 125.509 144.478 124.71 145.157Z" fill="#FFFDFE"/>
<path d="M131.283 1.58746C136.2 3.27452 139.674 7.55132 141.737 12.1727C144.275 17.8555 144.755 24.2147 145.613 30.3016C146.395 35.8431 147.502 41.51 150.405 46.3783C151.804 48.7235 153.617 50.8925 155.913 52.4017C157.781 53.6275 160.657 54.6675 161.895 52.0706C162.483 50.8361 162.554 49.3356 162.695 47.9963C162.874 46.2862 162.954 44.5682 163.047 42.8526C163.232 39.3975 163.502 35.9416 164.722 32.6722C165.035 31.8339 163.637 31.2892 163.255 32.1006C161.942 34.8865 160.822 37.7556 159.887 40.6891C158.307 40.6796 156.616 40.5296 155.334 39.5443C154.091 38.5893 153.528 37.0189 153.09 35.574C151.947 31.7926 150.957 27.9604 149.884 24.1583C148.874 20.5826 147.789 17.0012 146.092 13.6819C144.488 10.5436 142.345 7.69898 139.822 5.24262C139.583 5.01001 139.307 4.98699 139.065 5.06956C137.052 2.83232 134.578 1.04601 131.663 0.0464811C130.698 -0.285374 130.322 1.2572 131.283 1.58746Z" fill="#E5E5E5"/>
<path d="M184.058 51.4998C183.06 50.3303 182.479 48.8243 181.891 47.423C180.506 44.1172 179.235 40.7637 178.067 37.3753C177.92 36.949 177.54 36.8061 177.189 36.849C176.777 34.3878 176.149 31.918 174.384 30.061C173.679 29.3195 172.574 30.4603 173.278 31.2003C175.287 33.3129 175.625 36.633 175.972 39.3942C176.379 42.6397 176.492 45.9226 176.304 49.1879C176.227 50.5209 176.189 51.9198 175.776 53.2011C175.609 53.718 175.364 54.2761 174.944 54.6421C174.547 54.9874 174.065 55.0049 173.595 55.1843C173.523 52.6898 173.359 50.1978 173.086 47.7168C172.811 45.2199 172.488 42.7548 171.42 40.4557C170.926 39.3918 169.563 39.9277 169.237 40.774C168.25 43.3312 167.9 46.0401 167.535 48.7401C167.46 49.2919 167.385 49.8437 167.311 50.3954C167.165 50.5749 167.066 50.8059 167.045 51.0877C166.816 54.2308 166.226 57.3406 165.29 60.3503C164.82 61.8627 164.265 63.3457 163.617 64.7906C163.111 65.9188 162.58 67.1096 161.734 68.029C161.481 68.3037 161.16 68.5077 160.825 68.6967C161.004 65.0288 161.087 61.3506 160.7 57.7232C160.54 56.2164 158.358 56.2021 158.318 57.7582C158.131 65.2233 157.681 72.6781 156.987 80.1123C156.958 79.7678 156.93 79.424 156.899 79.0802C156.665 76.4627 156.431 73.8444 156.197 71.2269C156.11 70.2472 155.203 69.9106 154.533 70.194C153.906 70.2067 153.238 70.7156 153.249 71.4071C153.34 76.8271 153.432 82.2471 153.522 87.668C153.549 89.2844 153.576 90.9016 153.604 92.518C153.378 93.6239 153.08 94.7187 152.674 95.7968C152.072 97.3997 151.142 99.1749 149.534 99.9593C148.094 100.661 146.435 100.323 145.094 99.5599C141.79 97.68 140.943 93.5405 140.26 90.11C139.26 85.0893 138.455 80.0274 138.277 74.9043C138.251 74.1699 137.69 73.7983 137.119 73.7761C136.609 72.8552 134.879 73.0672 134.884 74.3779C134.919 83.75 134.953 93.1221 134.988 102.494C135.014 109.333 135.247 116.281 134.807 123.147C134.311 123.275 133.778 123.277 133.328 123.138C132.09 122.755 131.195 121.621 130.701 120.467C129.999 118.827 129.973 116.967 129.911 115.215C129.845 113.371 129.784 111.527 129.721 109.682C129.457 102.042 129.194 94.4003 128.93 86.7597C128.91 86.1762 128.551 85.8205 128.119 85.6879C127.538 85.0369 126.074 85.3227 125.97 86.5025C124.938 98.2436 124.292 110.016 124.024 121.798C123.128 120.89 122.997 118.394 122.872 117.582C122.518 115.26 122.219 112.929 121.969 110.593C121.475 105.975 121.184 101.338 121.081 96.6947C121.074 96.3986 120.979 96.162 120.831 95.9826C120.831 95.9802 120.831 95.977 120.831 95.9746C120.819 94.6679 118.66 94.3313 118.485 95.7071L117.375 104.365C116.204 103.142 116.195 100.754 116.056 99.2344C115.812 96.5653 115.592 93.8946 115.395 91.2215C114.997 85.8102 114.697 80.3926 114.489 74.9709C114.43 73.4395 112.048 73.4705 112.107 75.0059C112.221 77.9584 112.362 80.9102 112.531 83.8604C112.106 83.993 111.77 84.3573 111.793 84.9647C111.958 89.4273 111.786 93.8898 111.471 98.3421C111.302 100.735 111.167 103.156 110.931 105.56C110.3 105.349 109.547 105.275 108.992 105.034C106.132 103.793 104.076 101.064 103.041 98.1897C101.735 94.5623 101.682 90.6642 101.554 86.8558C101.417 82.8362 101.18 78.8214 100.882 74.8106C100.716 72.5662 100.541 70.321 100.337 68.0798C100.147 65.9974 99.8761 63.9213 99.1052 61.9643C98.9448 61.5578 98.5717 61.4157 98.2263 61.4491C97.8969 61.0577 97.2268 61.1283 96.9259 61.5824C96.5671 62.1239 96.0367 62.9607 95.3706 63.1687C94.5839 63.4148 94.025 62.7876 93.5986 62.2199C92.6721 60.9854 92.0584 59.5064 91.5003 58.0797C90.2706 54.935 89.0932 51.7681 87.8912 48.6123C87.7459 48.232 87.4141 48.0788 87.0901 48.0852C86.6265 47.8835 85.993 48.1423 85.9493 48.6663C85.6413 48.8156 85.4126 49.1276 85.5174 49.5547C87.5387 57.7518 89.3973 65.987 91.1065 74.2548C89.8418 73.3109 88.6692 72.2582 87.8785 70.8593C86.8694 69.0754 86.4725 67.0176 86.0978 65.0248C85.2038 60.2717 84.3313 55.5138 83.4485 50.7583C83.3484 50.22 82.8681 50.1025 82.4688 50.2541C82.1314 49.9342 81.5074 49.8683 81.1842 50.3859C80.1275 52.0801 79.3448 53.9466 78.9351 55.9044C78.5437 57.7733 78.604 60.0565 77.1925 61.5189C75.8396 62.9202 73.862 63.071 72.1154 63.653C70.5387 64.1777 69.0422 65.3932 69.2105 67.216C69.2462 67.6035 69.4574 67.8464 69.8139 67.975C71.9614 68.7499 74.1089 69.5263 76.2572 70.2996C78.119 70.9696 79.9743 71.5778 81.9528 71.7183C84.7997 74.0238 88.1969 75.3449 91.6107 76.5842C91.6186 76.6088 91.6353 76.6223 91.6448 76.6445C91.6877 77.1709 91.7337 77.6972 91.7734 78.2244C91.3844 79.6368 90.8493 80.9967 90.1332 82.2852C89.6767 83.1069 89.1623 83.8977 88.5819 84.6368C88.2254 85.0909 87.7761 85.5196 87.5927 86.0706C87.1934 86.2627 86.9298 86.7581 87.2203 87.1821C89.252 90.145 91.7814 92.6632 94.745 94.6925C94.8538 94.7671 94.9626 94.7981 95.0697 94.8084C95.1078 94.9243 95.1507 95.0362 95.1841 95.1553C95.2531 95.4022 95.4246 95.5547 95.6263 95.6372C96.6472 100.14 94.4187 105.404 97.7603 109.3C100.81 112.857 105.801 111.23 109.729 112.646C109.077 114.827 108.037 116.827 106.229 118.37C105.944 118.614 105.725 118.873 105.545 119.139C105.141 119.338 104.844 119.755 104.866 120.222C104.973 122.479 106.9 124.093 108.862 124.887C110.453 125.531 112.167 125.765 113.851 125.541C116.057 126.815 117.855 128.749 118.842 131.158C119.036 131.633 119.456 131.897 119.887 131.959C120.13 133.456 120.574 134.917 121.351 136.31C122.294 138 123.716 139.498 125.504 140.29C126.295 140.64 127.276 140.892 128.062 140.376C128.845 139.862 128.897 139.072 128.805 138.27L131.836 135.881C132.276 135.533 132.727 135.191 133.177 134.846C134.063 134.484 134.848 134.022 135.426 133.276C136.443 132.779 137.232 131.916 137.69 130.793C138.48 128.854 138.016 126.755 137.519 124.805C137.478 124.647 137.41 124.513 137.322 124.401C137.577 124.174 137.808 123.914 138.012 123.627C138.08 123.576 138.147 123.518 138.209 123.446C140.624 120.645 143.673 118.533 147.167 117.31C148.941 116.689 150.693 116.069 152.011 114.662C153.203 113.39 153.951 111.787 154.494 110.148C155.084 108.37 155.437 106.53 155.657 104.669C155.853 104.449 156.061 104.237 156.242 104.008C157.651 102.227 158.346 100.213 158.414 97.9436C158.487 95.515 157.925 93.092 158.278 90.6689C158.514 89.0478 159.002 87.4822 159.416 85.8999C159.426 85.8936 159.437 85.892 159.446 85.8856L165.882 81.1849C166.484 80.7451 166.721 79.8733 166.108 79.3033C164.177 77.5099 164.758 75.0742 165.139 72.7432C165.167 72.5733 165.2 72.405 165.228 72.2351C165.401 72.2724 165.589 72.2764 165.787 72.2232C169.292 71.2809 172.755 70.1924 176.169 68.9587C177.015 68.653 177.344 67.6328 176.679 66.9564C175.984 66.2498 175.051 66.1268 174.298 65.5496C173.729 65.113 173.586 64.3667 173.544 63.6633C173.787 63.6403 174.03 63.5164 174.189 63.2846C175.798 60.9521 178.877 60.3813 181.316 59.3087C183.256 58.456 186.263 56.6491 186.196 54.1578C186.162 52.8455 184.811 52.3818 184.058 51.4998Z" fill="#E5E5E5"/>
<path d="M126.502 142.336C126.486 143.44 125.509 144.479 124.709 145.158C124.207 145.593 123.689 146.022 123.196 146.466C123.37 144.287 123.552 142.126 123.743 139.955C124.544 140.443 125.377 140.884 126.208 141.308C126.208 141.316 126.216 141.332 126.224 141.34C126.306 141.473 126.363 141.615 126.405 141.75C126.361 141.965 126.404 142.163 126.502 142.336Z" fill="#C2CAC2"/>
<path d="M92.3451 79.5354C91.9354 80.8438 90.5675 81.7687 89.5235 82.5388C89.0369 82.9032 88.5661 83.2914 88.1271 83.6947C88.2382 80.9938 88.2223 78.2937 88.0548 75.5889C89.8824 76.2446 91.7155 77.2259 92.1974 79.2194C92.2316 79.3464 92.2808 79.4489 92.3451 79.5354Z" fill="#C2CAC2"/>
<path d="M177.006 66.3905C176.217 66.204 175.429 66.0245 174.64 65.838C174.377 65.7784 173.638 65.7657 173.492 65.5212C173.484 65.5053 173.476 65.4974 173.467 65.4815V65.4736C173.482 65.4339 173.489 65.3942 173.489 65.3457C173.496 65.2743 173.495 65.2028 173.502 65.1314C173.502 65.1235 173.502 65.1234 173.502 65.1155C173.593 64.8519 173.788 64.5558 173.865 64.4351C174.439 63.5372 175.287 62.8973 176.224 62.3916C176.49 63.723 176.748 65.0607 177.006 66.3905Z" fill="#C2CAC2"/>
<path d="M166.969 73.3276C166.905 74.8845 166.84 76.4422 166.776 78.007C166.075 77.2869 165.538 76.4374 165.69 75.4109C165.82 74.5598 166.318 73.8611 166.969 73.3276Z" fill="#C2CAC2"/>
<path d="M96.7624 99.0503C96.8616 100.39 96.5075 101.658 95.9931 102.881C95.6064 100.346 95.0848 97.8364 94.4529 95.353C95.6811 96.2549 96.6346 97.3846 96.7624 99.0503Z" fill="#C2CAC2"/>
<path d="M109.512 115.044C108.129 116.001 106.938 117.122 105.965 118.431C105.8 116.369 105.476 114.325 105.002 112.307C105.534 112.323 106.058 112.331 106.582 112.34C107.726 112.371 109.146 112.286 110.172 112.914C111.317 113.627 110.251 114.532 109.512 115.044Z" fill="#C2CAC2"/>
<path d="M156.616 48.152C151.965 40.1692 151.327 30.8654 148.999 22.1181C147.208 15.3953 144.149 8.22309 138.025 4.36786C131.525 0.287156 122.994 1.09615 116.563 4.90692C110.038 8.77485 105.636 15.5414 103.152 22.581C100.187 30.9694 99.7086 39.9565 99.3624 48.7673C99.3227 49.8399 97.6476 49.8645 97.6952 48.7919C97.7532 47.3462 97.8111 45.8997 97.8929 44.446C97.9461 43.2306 98.0239 42.0222 98.1168 40.806C98.6503 33.3583 99.7634 25.9416 102.758 19.0536C105.853 11.9251 111.075 5.31341 118.332 2.12586C125.274 -0.922761 133.691 -0.911651 139.968 3.68827C146.036 8.13258 149.059 15.512 150.839 22.5833C152.08 27.5516 152.847 32.7009 154.19 37.6597C154.467 38.6719 154.768 39.6762 155.1 40.671C155.864 42.9543 156.818 45.1796 158.056 47.3049C158.595 48.2338 157.162 49.0809 156.616 48.152Z" fill="#494949"/>
<path d="M161.293 40.0873C161.293 40.0873 161.285 40.0952 161.293 40.1032C161.295 40.2064 161.28 40.3175 161.234 40.4136C161.181 40.597 161.064 40.7494 160.891 40.8391C160.426 41.0685 159.944 41.2345 159.446 41.3448C158.456 41.5735 157.424 41.5576 156.435 41.2623C155.964 41.1186 155.517 40.9264 155.101 40.6708C154.323 40.2215 153.648 39.5887 153.12 38.8265C152.86 38.4574 153.051 37.8985 153.413 37.6865C153.664 37.5317 153.95 37.5436 154.191 37.6587C154.335 37.7278 154.463 37.8373 154.561 37.9787C155.08 38.7329 155.923 39.372 156.832 39.6443C157.773 39.9245 158.797 39.9015 159.705 39.5466C159.824 39.5053 159.934 39.4561 160.044 39.399C160.446 39.2029 160.94 39.2823 161.184 39.6919C161.257 39.8023 161.292 39.9523 161.293 40.0873Z" fill="#494949"/>
<path d="M187.36 54.0577C187.418 54.7635 186.554 55.4272 185.997 54.7603C185.933 54.6817 185.86 54.596 185.795 54.5174C183.442 51.6776 181.467 48.563 179.964 45.1865C178.617 42.1578 177.943 38.9837 176.888 35.8549C175.901 32.9556 173.893 30.8493 170.752 30.5143C167.785 30.2007 165.066 31.5829 163.436 34.0527C162.224 35.8811 161.627 37.954 161.294 40.0873C161.294 40.0873 161.286 40.0952 161.294 40.1031C161.271 40.2063 161.257 40.3103 161.235 40.4136C161.04 41.7505 160.933 43.1017 160.826 44.4292C160.747 45.4946 159.079 45.5271 159.159 44.4538C159.239 43.428 159.327 42.3872 159.446 41.3448C159.517 40.7406 159.603 40.1436 159.706 39.5466C160.144 36.9831 160.933 34.5108 162.578 32.4062C166.404 27.4823 174.608 27.576 177.622 33.3271C178.456 34.9189 178.878 36.675 179.341 38.3994C179.837 40.2579 180.436 42.0911 181.192 43.8583C182.689 47.3619 184.707 50.6431 187.156 53.5679C187.283 53.7251 187.341 53.891 187.36 54.0577Z" fill="#494949"/>
<path d="M187.472 54.6519C187.509 54.4208 187.458 54.2152 187.36 54.058C186.986 53.484 185.977 53.4197 185.854 54.247C185.84 54.3422 185.825 54.4304 185.795 54.5177C185.372 56.5406 183.58 57.8299 181.742 58.5793C179.603 59.4606 177.29 59.8678 175.259 61.0174C174.731 61.3191 174.15 61.7169 173.61 62.1853C172.693 62.9927 171.906 64.0208 171.827 65.1577C171.822 65.3006 171.823 65.4435 171.834 65.5943C171.834 65.6023 171.834 65.6102 171.834 65.6102L171.834 65.642C171.955 66.8471 172.961 67.1655 173.98 67.4044C174.904 67.6132 175.829 67.83 176.745 68.0388C177.119 68.1285 177.493 68.2103 177.868 68.3C178.179 68.3746 178.448 68.2754 178.627 68.0904C178.831 67.8967 178.93 67.5855 178.869 67.2687C178.508 65.4078 178.148 63.5556 177.786 61.6946C178.047 61.5954 178.307 61.4882 178.56 61.4057C182.068 60.2259 186.829 58.9969 187.472 54.6519ZM174.639 65.8381C174.376 65.7785 173.637 65.7658 173.491 65.5213C173.483 65.5054 173.475 65.4975 173.467 65.4816V65.4737C173.433 65.3871 173.456 65.2672 173.502 65.1315C173.502 65.1235 173.502 65.1235 173.502 65.1156C173.593 64.852 173.787 64.5559 173.864 64.4352C174.438 63.5373 175.287 62.8974 176.224 62.3917C176.49 63.7215 176.748 65.06 177.005 66.3898C176.217 66.204 175.428 66.0254 174.639 65.8381Z" fill="#494949"/>
<path d="M172.369 43.5534C172.338 43.1184 171.991 42.7047 171.523 42.7317C171.093 42.7563 170.668 43.1128 170.701 43.578C170.803 44.9832 170.905 46.3893 171.006 47.7945C171.037 48.2296 171.385 48.6432 171.852 48.6162C172.282 48.5916 172.708 48.2351 172.674 47.7699C172.573 46.3639 172.471 44.9586 172.369 43.5534Z" fill="#494949"/>
<path d="M173.609 62.1848C173.591 63.1614 173.558 64.1387 173.501 65.116C173.501 65.1239 173.501 65.1239 173.501 65.1318C173.494 65.2033 173.495 65.2747 173.488 65.3462C173.489 65.3938 173.482 65.4335 173.466 65.474V65.482C173.296 66.3338 172.003 66.3926 171.832 65.609C171.832 65.609 171.832 65.601 171.832 65.5931C171.815 65.5296 171.806 65.451 171.813 65.3708C171.82 65.2994 171.819 65.2279 171.826 65.1565C172.104 60.3406 171.938 55.5239 171.343 50.7446C171.208 49.6744 172.875 49.6657 173.01 50.72C173.487 54.5244 173.687 58.3566 173.609 62.1848Z" fill="#494949"/>
<path d="M178.396 67.4821C178.106 67.2002 177.494 67.1463 177.221 67.4995C177.073 67.6925 176.916 67.8774 176.744 68.0386C174.147 70.626 169.557 69.5502 166.561 71.5477H166.554C165.225 72.4329 164.111 73.8707 164.007 75.5077V75.5157C163.993 75.6427 163.995 75.7618 163.997 75.8888C164.053 77.5235 165.112 78.7786 166.294 79.8171C166.511 80.0124 166.736 80.1997 166.961 80.3791C167.314 80.6681 167.775 80.6451 168.073 80.4022C168.245 80.2648 168.361 80.0489 168.373 79.7702C168.472 77.2996 168.57 74.8289 168.676 72.3575C168.763 72.3241 168.85 72.2916 168.937 72.2582C172.137 71.2262 176.154 71.6438 178.411 68.6642C178.544 68.488 178.62 68.2879 178.625 68.0894C178.647 67.8751 178.573 67.6615 178.396 67.4821ZM165.69 75.4109C165.82 74.5598 166.318 73.8611 166.969 73.3276C166.904 74.8845 166.84 76.4422 166.776 78.007C166.075 77.2869 165.538 76.4374 165.69 75.4109Z" fill="#494949"/>
<path d="M168.111 52.4345C167.245 60.068 165.872 67.6331 164 75.084C163.739 76.1248 165.357 76.5273 165.619 75.4833C167.491 68.0325 168.864 60.4673 169.73 52.8331C169.85 51.7827 168.232 51.3683 168.111 52.4345Z" fill="#494949"/>
<path d="M168.074 80.4022C168.066 80.418 168.05 80.426 168.043 80.4426C166.597 82.0043 164.689 82.9379 162.936 84.0986C160.883 85.4387 159.59 87.1655 159.397 89.6687C159.051 94.2075 161.399 99.4131 158.187 103.399C158.062 103.551 157.913 103.649 157.754 103.691C157.066 103.9 156.23 103.189 156.776 102.514C156.877 102.386 156.97 102.257 157.064 102.129C159.77 98.2143 157.133 92.8388 157.894 88.4286C157.908 88.3095 157.93 88.1976 157.952 88.0785C158.227 86.8042 158.807 85.7237 159.603 84.7988C160.188 84.0915 160.902 83.4778 161.696 82.9339C163.229 81.8788 164.916 81.0603 166.295 79.817C166.507 79.6313 166.718 79.4296 166.913 79.2121C167.632 78.4309 168.729 79.6138 168.074 80.4022Z" fill="#494949"/>
<path d="M158.696 64.3435C158.402 72.2421 158.108 80.1408 157.813 88.0394C157.774 89.1143 159.441 89.0857 159.481 88.0148C159.776 80.1161 160.07 72.2175 160.364 64.3189C160.404 63.244 158.736 63.2725 158.696 64.3435Z" fill="#494949"/>
<path d="M159.683 56.3776C159.224 56.4038 158.864 56.7579 158.861 57.2239L158.848 59.608C158.845 60.0447 159.25 60.4551 159.694 60.4297C160.153 60.4035 160.513 60.0494 160.516 59.5834L160.529 57.1993C160.532 56.7618 160.126 56.3522 159.683 56.3776Z" fill="#494949"/>
<path d="M99.6196 41.4428C99.2313 42.5519 98.6423 43.5697 97.8936 44.4462C96.8869 45.6283 95.5825 46.5524 94.09 47.0986C93.9876 47.1399 93.8844 47.1732 93.7819 47.2066C93.3397 47.3558 92.8904 47.0454 92.757 46.6262C92.6324 46.2467 92.857 45.8466 93.1952 45.6593C93.2429 45.6346 93.2897 45.618 93.3373 45.6013C93.4874 45.5513 93.6374 45.5013 93.7796 45.4441C93.8034 45.4362 93.9058 45.3949 93.9137 45.3869C93.9772 45.3623 94.032 45.3377 94.0876 45.3131C94.3639 45.1821 94.6235 45.0352 94.8831 44.8804C95.1268 44.7256 95.3706 44.5637 95.5984 44.3858C95.6294 44.3541 95.6849 44.3128 95.6921 44.3048C95.7548 44.2564 95.8096 44.2 95.8723 44.1516C95.9819 44.0548 96.0843 43.9579 96.1859 43.8531C96.405 43.6435 96.6083 43.426 96.7956 43.1934C96.8504 43.1291 96.8972 43.0648 96.9441 43.0084C96.9671 42.9766 96.9671 42.9766 96.975 42.9679C96.983 42.952 96.983 42.96 96.9981 42.9361C97.0917 42.8075 97.1767 42.6718 97.2624 42.5432C97.418 42.3026 97.557 42.0462 97.688 41.7905C97.757 41.6468 97.8269 41.5023 97.888 41.3586C97.888 41.3586 97.9341 41.2388 97.942 41.2229C97.9651 41.1673 97.9801 41.1109 98.0032 41.0474C98.0333 40.9593 98.0722 40.8799 98.1191 40.8077C98.3136 40.5187 98.6288 40.3639 99.0106 40.4369C99.4235 40.5171 99.7641 41.0363 99.6196 41.4428Z" fill="#494949"/>
<path d="M94.6697 49.8455C92.1134 48.2394 91.5219 45.2789 89.9936 42.8797C88.124 39.9533 84.5498 40.4035 81.7258 41.6444C78.9567 42.8686 76.6305 45.0383 75.2817 47.7503C73.6391 51.0458 73.3787 54.8844 72.549 58.4221C71.8845 61.2587 71.0199 64.0501 69.9807 66.7732C69.7672 67.3559 69.5369 67.9307 69.2995 68.5063C69.2233 68.7056 69.1392 68.9136 69.0542 69.1137C68.8089 69.6972 68.2047 69.6503 67.8348 69.3225C67.811 69.2986 67.7784 69.2756 67.7625 69.2439C67.545 69.0089 67.4362 68.6691 67.5903 68.3094C69.4083 63.9794 70.7151 59.474 71.5916 54.8638C72.2688 51.2729 72.9698 47.6654 75.2443 44.6866C77.1529 42.181 79.9117 40.2979 82.9564 39.4516C85.9534 38.6132 89.1171 38.8681 91.0781 41.5229C91.9609 42.7249 92.4921 44.273 93.1955 45.66C93.4654 46.172 93.7504 46.6603 94.0902 47.1001C94.4705 47.6027 94.9143 48.0409 95.4668 48.3894C96.3798 48.9547 95.5756 50.4195 94.6697 49.8455Z" fill="#494949"/>
<path d="M84.8928 71.141C84.1901 71.3895 83.4923 71.4872 82.8016 71.4816C81.9918 71.4856 81.1955 71.3387 80.4143 71.0958H80.4064C80.0793 70.9973 79.7601 70.883 79.441 70.7608C79.433 70.7608 79.4251 70.7528 79.4172 70.7528C79.0258 70.5996 78.6423 70.4384 78.2581 70.2542C77.8667 70.0772 77.4745 69.8922 77.091 69.7001C77.091 69.7001 77.091 69.7001 77.0831 69.7001C76.8592 69.5921 76.6432 69.4841 76.4273 69.3762C74.3877 68.3663 71.4574 67.2818 69.529 68.93C69.3559 69.0673 69.1924 69.2285 69.036 69.4214C68.6692 69.8716 68.1595 69.7358 67.8681 69.3913C67.8277 69.3444 67.7872 69.2976 67.7626 69.242C67.5998 68.9586 67.5704 68.5775 67.8356 68.256C68.4286 67.5327 69.1678 67.0532 69.9815 66.7713C71.6162 66.1918 73.5573 66.4014 75.1777 67.004C77.8762 68.0122 80.6961 70.2495 83.6892 69.6969C82.5301 64.3388 81.791 58.895 81.5115 53.4202C81.4559 52.3412 83.1231 52.3246 83.1787 53.3956C83.4605 59.0204 84.2259 64.6151 85.4739 70.1153C85.5835 70.5758 85.335 70.9838 84.8928 71.141Z" fill="#494949"/>
<path d="M79.4161 70.7538C79.3923 70.7705 79.3692 70.7943 79.3454 70.8102L79.3375 70.8181C79.2668 70.8665 79.1724 70.9078 79.0691 70.9412C76.9105 71.5684 74.6431 71.7764 72.4082 71.5239C70.7934 71.3413 68.6213 71.0237 67.8671 69.3915C67.8512 69.3676 67.8425 69.3438 67.8345 69.3208C67.7853 69.2263 67.752 69.1231 67.7186 69.0128C67.4177 68.0085 68.9436 67.5575 69.2993 68.5055C69.3072 68.5213 69.316 68.5451 69.3239 68.5682C69.366 68.7023 69.439 68.8286 69.5279 68.9302C69.7947 69.2359 70.2417 69.4042 70.6243 69.5098C71.4381 69.7519 72.305 69.8662 73.1474 69.925C74.4748 70.0163 75.7919 69.9416 77.082 69.7003C77.0899 69.7003 77.0899 69.7003 77.0899 69.7003C77.5806 69.6058 78.0633 69.4955 78.546 69.3613C78.5698 69.3534 78.6015 69.3446 78.6253 69.3359C79.5185 69.0691 79.9726 70.2378 79.4161 70.7538Z" fill="#494949"/>
<path d="M79.4401 70.7619C79.4091 70.7865 79.3774 70.8024 79.3456 70.8111L79.3377 70.819C79.2512 70.8524 79.1559 70.8691 79.0447 70.8707C78.5922 70.877 78.3263 70.5872 78.2572 70.2554C78.173 69.9315 78.2707 69.5567 78.5454 69.3622C78.6629 69.2654 78.8288 69.2074 79.0193 69.2042C79.9411 69.1899 80.0863 70.411 79.4401 70.7619Z" fill="#494949"/>
<path d="M93.0485 79.8026C92.7793 79.8383 92.5157 79.7549 92.3458 79.535C92.2807 79.4485 92.2315 79.3461 92.1982 79.2198C91.7163 77.2263 89.8831 76.2451 88.0556 75.5893C87.6006 75.421 87.1537 75.2773 86.7234 75.1407C86.5956 75.1026 86.4757 75.0653 86.3486 75.0193C84.0987 74.2984 81.8067 73.4029 80.5055 71.3022C80.465 71.2315 80.4316 71.168 80.415 71.0973H80.407C80.149 70.2756 81.4177 69.6215 81.9456 70.463C82.1894 70.856 82.4807 71.1934 82.8023 71.4824C84.3234 72.8654 86.6083 73.2996 88.4922 73.9713C89.7132 74.4056 90.9533 75.0066 91.9418 75.8497C92.665 76.4586 93.2477 77.2041 93.5947 78.1123C93.6772 78.3259 93.7439 78.5466 93.8027 78.776C93.9464 79.3524 93.5081 79.7557 93.0485 79.8026Z" fill="#494949"/>
<path d="M87.7736 50.898C87.5719 50.189 87.3703 49.4801 87.1694 48.7703C87.0503 48.3503 86.5724 48.0502 86.1421 48.19C85.7142 48.3289 85.4347 48.7687 85.5617 49.2173C85.7634 49.9263 85.9642 50.6352 86.1659 51.345C86.285 51.765 86.7629 52.0651 87.1932 51.9253C87.6211 51.7856 87.9006 51.3466 87.7736 50.898Z" fill="#494949"/>
<path d="M88.677 54.3761C88.396 53.3376 86.7899 53.7862 87.0702 54.823C89.2463 62.8788 91.0842 71.022 92.5775 79.2326C92.7696 80.2909 94.3757 79.8336 94.1844 78.7856C92.691 70.575 90.8539 62.4319 88.677 54.3761Z" fill="#494949"/>
<path d="M94.1375 78.8738C94.124 79.0564 94.1026 79.224 94.074 79.3907V79.3986C93.7874 80.9904 92.6862 82.1979 91.4144 83.2014C90.1426 84.197 88.4333 85.1195 87.926 86.7621C87.926 86.7701 87.918 86.7859 87.9109 86.7939C87.6211 87.6235 86.1992 87.5497 86.2802 86.5795C86.2865 86.5001 86.2937 86.4208 86.3008 86.3414C86.5946 82.5735 86.6104 78.7937 86.3477 75.0186C86.3365 74.8201 86.3183 74.6225 86.3072 74.424C86.2278 73.353 87.895 73.3363 87.9744 74.3994C88.0038 74.7955 88.0339 75.1925 88.0554 75.5894C88.2221 78.2943 88.2388 80.9936 88.1276 83.6953C88.5666 83.2919 89.0366 82.9037 89.5241 82.5393C90.5689 81.7692 91.9368 80.8443 92.3457 79.536C92.4139 79.3287 92.4505 79.1215 92.4632 78.8992C92.4703 78.8437 92.4774 78.7881 92.4846 78.7405V78.7325C92.6196 78.2141 93.165 78.0077 93.5945 78.1125C93.9136 78.1943 94.1629 78.4443 94.1375 78.8738Z" fill="#494949"/>
<path d="M96.8082 95.1825C96.6471 95.0023 96.4692 94.8221 96.2843 94.6585C94.8687 93.4089 93.0951 92.6888 91.5549 91.6154C89.8623 90.4333 88.5984 88.7375 87.9109 86.794C87.8783 86.7154 87.845 86.636 87.8196 86.5495C87.5703 85.8064 86.6263 85.8525 86.3 86.3415C86.1675 86.5098 86.123 86.7329 86.2143 87.002C86.7875 88.7407 87.7164 90.3222 89.0065 91.6377C89.9981 92.6475 91.1834 93.3684 92.3933 94.0726C93.4246 97.773 94.2026 101.533 94.6639 105.345C94.6814 105.464 94.6909 105.575 94.7084 105.694C94.7989 106.462 95.8532 106.884 96.2779 106.084C96.2859 106.068 96.2938 106.06 96.3009 106.044C97.3283 104.092 98.3461 102.059 98.4397 99.811L98.4381 99.7157C98.4461 99.7157 98.4461 99.7078 98.4381 99.6998C98.4858 98.008 97.9221 96.421 96.8082 95.1825ZM95.9929 102.88C95.6063 100.345 95.0847 97.8357 94.4527 95.3524C95.6809 96.2551 96.6344 97.3848 96.7622 99.0504C96.8614 100.391 96.5074 101.658 95.9929 102.88Z" fill="#494949"/>
<path d="M112.293 113.041C112.108 112.369 111.64 111.876 111.064 111.519C110.743 111.318 110.392 111.164 110.033 111.05C108.748 110.633 107.296 110.686 105.962 110.666C104.46 110.633 102.936 110.647 101.447 110.36C99.2173 109.916 96.6402 108.493 96.302 106.045C96.2766 105.941 96.2671 105.839 96.2576 105.736C96.1964 104.824 94.9802 104.699 94.6642 105.347C94.6102 105.459 94.5808 105.602 94.5912 105.76C94.738 108.18 96.4179 110.077 98.5297 111.134C100.033 111.881 101.665 112.136 103.31 112.246C103.319 112.294 103.304 112.341 103.32 112.397C104.03 115.284 104.399 118.233 104.435 121.209C104.439 121.471 104.569 121.684 104.762 121.832C105.148 122.128 105.767 122.126 106.005 121.599C106.089 121.407 106.182 121.215 106.282 121.023C106.791 119.999 107.445 119.053 108.242 118.215C109.149 117.273 110.275 116.661 111.255 115.805C111.718 115.401 112.091 114.895 112.258 114.337C112.266 114.337 112.266 114.329 112.266 114.329C112.394 113.921 112.419 113.492 112.293 113.041ZM109.512 115.044C108.129 116.001 106.938 117.122 105.966 118.43C105.8 116.369 105.476 114.325 105.002 112.307C105.534 112.323 106.058 112.331 106.582 112.34C107.726 112.371 109.146 112.286 110.172 112.914C111.317 113.627 110.251 114.532 109.512 115.044Z" fill="#494949"/>
<path d="M127.494 141.234C127.494 141.242 127.494 141.242 127.486 141.242C127.26 141.499 126.904 141.639 126.513 141.462C126.497 141.462 126.489 141.454 126.473 141.447C126.385 141.401 126.297 141.354 126.208 141.308C125.376 140.884 124.544 140.444 123.743 139.956C123.191 139.622 122.661 139.265 122.163 138.875C121.223 138.142 120.385 137.298 119.727 136.267C119.044 135.206 118.654 134.012 118.563 132.751C118.502 131.839 118.529 130.988 118.327 130.206C118.301 130.071 118.26 129.929 118.211 129.802C118.038 129.352 117.769 128.935 117.35 128.537C115.217 126.543 111.996 126.75 109.371 125.891C107.369 125.238 105.387 123.894 104.762 121.831C104.687 121.609 104.636 121.372 104.601 121.126C104.451 120.081 106.055 119.62 106.206 120.682C106.223 120.801 106.241 120.911 106.282 121.022C106.868 123.594 109.778 124.393 112.095 124.827C114.253 125.248 116.554 125.658 118.258 127.118C118.419 127.251 118.572 127.391 118.717 127.548C119.241 128.088 119.632 128.702 119.871 129.389C119.995 129.705 120.072 130.029 120.124 130.37C120.353 131.923 120.089 133.403 120.834 134.861C121.937 137.005 124.037 138.299 126.133 139.388C126.501 139.589 126.869 139.774 127.237 139.96C127.253 139.967 127.261 139.975 127.277 139.983C127.541 140.122 127.672 140.334 127.699 140.556C127.734 140.793 127.642 141.041 127.494 141.234Z" fill="#494949"/>
<path d="M98.0795 61.4309C97.6285 61.4571 97.2514 61.8112 97.2578 62.2772L97.3038 65.3774C97.3102 65.8141 97.7 66.2245 98.1501 66.1991C98.6011 66.1729 98.979 65.8188 98.9718 65.3528L98.9258 62.2526C98.9194 61.8151 98.5296 61.4047 98.0795 61.4309Z" fill="#494949"/>
<path d="M96.9904 68.9753C96.9213 79.1881 96.8514 89.401 96.7824 99.6139C96.7752 100.69 98.4424 100.663 98.4504 99.5893C98.5194 89.3764 98.5885 79.1635 98.6584 68.9507C98.6647 67.8757 96.9975 67.9019 96.9904 68.9753Z" fill="#494949"/>
<path d="M112.052 76.5445L110.999 113.66C110.969 114.735 112.636 114.707 112.667 113.635L113.72 76.5199C113.75 75.4449 112.082 75.4727 112.052 76.5445Z" fill="#494949"/>
<path d="M120.476 97.8697C120.479 97.4339 120.201 96.9853 119.724 96.9615C119.305 96.9401 118.818 97.2481 118.816 97.7133C118.809 98.9098 118.802 100.106 118.796 101.303C118.793 101.739 119.07 102.188 119.548 102.212C119.966 102.233 120.453 101.925 120.456 101.46C120.463 100.263 120.469 99.0662 120.476 97.8697Z" fill="#494949"/>
<path d="M120.361 105.029C120.196 113.146 120.03 121.271 119.872 129.388C119.866 129.555 119.868 129.721 119.863 129.888C119.853 130.785 118.709 130.826 118.327 130.205C118.254 130.094 118.212 129.96 118.211 129.801C118.203 129.778 118.202 129.762 118.202 129.738C118.221 128.865 118.24 127.991 118.258 127.117C118.403 119.699 118.555 112.281 118.7 104.871C118.715 103.791 120.377 103.957 120.361 105.029Z" fill="#494949"/>
<path d="M127.26 96.3876C127.311 95.3134 125.643 95.3436 125.592 96.4122C124.883 111.118 125.09 125.858 126.214 140.537C126.296 141.604 127.964 141.585 127.882 140.512C126.759 125.833 126.551 111.093 127.26 96.3876Z" fill="#494949"/>
<path d="M127.129 86.6735C126.659 86.7005 126.325 87.0538 126.308 87.5198C126.271 88.4907 126.235 89.4617 126.197 90.4327C126.181 90.8701 126.61 91.279 127.044 91.2543C127.514 91.2273 127.848 90.8749 127.865 90.408C127.902 89.4371 127.938 88.4661 127.976 87.4952C127.991 87.0577 127.563 86.6481 127.129 86.6735Z" fill="#494949"/>
<path d="M126.661 145.613C125.403 146.941 123.597 147.818 122.869 149.576C122.546 150.335 121.232 149.996 121.298 149.186C121.589 145.751 121.871 142.309 122.162 138.874C122.168 138.771 122.183 138.668 122.189 138.565C122.222 138.112 122.518 137.726 123.01 137.719C123.423 137.713 123.889 138.096 123.855 138.54C123.815 139.009 123.774 139.487 123.741 139.955C123.551 142.126 123.369 144.288 123.194 146.466C123.688 146.022 124.206 145.593 124.707 145.157C125.508 144.479 126.484 143.44 126.5 142.336C126.505 142.137 126.478 141.947 126.404 141.75C126.363 141.616 126.305 141.474 126.223 141.34C126.215 141.332 126.207 141.316 126.206 141.308C126.043 141.024 126.071 140.754 126.211 140.546V140.538C126.397 140.234 126.783 140.045 127.142 140.127C127.341 140.164 127.534 140.28 127.664 140.5C127.672 140.516 127.688 140.54 127.696 140.555C127.754 140.65 127.802 140.736 127.843 140.831V140.839C128 141.186 128.092 141.541 128.129 141.898C128.27 143.239 127.599 144.622 126.661 145.613Z" fill="#494949"/>
<path d="M157.942 103.49C157.879 103.554 157.817 103.619 157.755 103.691C156.794 104.753 156.313 106.054 155.96 107.433C155.877 107.752 155.802 108.071 155.736 108.397C155.386 110.006 155.109 111.662 154.408 113.093C152.728 116.54 148.829 117.598 145.545 118.917C142.522 120.13 139.359 122.058 138.891 125.32C138.876 125.415 138.862 125.519 138.856 125.623C138.822 126.036 138.829 126.473 138.883 126.933C139.092 128.747 139.484 130.552 138.428 132.195C137.644 133.414 136.386 134.202 135.15 134.895C133.614 135.752 132.149 136.575 130.889 137.825C129.716 139.01 128.807 140.381 128.131 141.899C128.062 142.059 127.993 142.219 127.923 142.387C127.632 143.105 126.787 142.888 126.502 142.336C126.404 142.163 126.361 141.964 126.405 141.75C126.421 141.702 126.436 141.646 126.459 141.591C126.474 141.551 126.497 141.502 126.513 141.463C126.551 141.375 126.582 141.287 126.628 141.199C126.781 140.832 126.951 140.48 127.144 140.127C127.175 140.071 127.206 140.015 127.237 139.959C127.399 139.647 127.585 139.35 127.771 139.054C128.361 138.148 129.04 137.304 129.815 136.547C131.176 135.216 132.775 134.32 134.429 133.39C135.878 132.575 137.404 131.583 137.496 129.757C137.59 128.104 137.027 126.548 137.226 124.917V124.909C137.261 124.63 137.313 124.352 137.396 124.073C137.713 123.004 138.24 122.091 138.911 121.295C140.479 119.422 142.835 118.212 145.093 117.305C146.933 116.571 148.869 115.971 150.552 114.906C152.157 113.897 153.033 112.456 153.547 110.677C153.841 109.656 154.048 108.589 154.287 107.538C154.661 105.953 155.122 104.397 156.103 103.089C156.289 102.824 156.5 102.575 156.742 102.333C156.844 102.228 156.954 102.163 157.065 102.13C157.791 101.873 158.599 102.837 157.942 103.49Z" fill="#494949"/>
<path d="M156.102 103.088C156.06 104.542 156.018 105.988 155.96 107.433C155.954 107.584 155.949 107.727 155.942 107.878C155.929 108.092 155.86 108.268 155.736 108.397C155.29 108.912 154.241 108.761 154.276 107.903C154.282 107.783 154.288 107.656 154.286 107.537C154.724 96.2955 154.772 85.0442 154.454 73.7977C154.423 72.7259 156.09 72.7013 156.122 73.7731C156.401 83.5437 156.395 93.3263 156.102 103.088Z" fill="#494949"/>
<path d="M138.923 118.373C138.921 119.341 138.912 120.319 138.91 121.295C138.898 122.637 138.894 123.979 138.89 125.321L138.891 125.393C138.892 125.472 138.878 125.551 138.855 125.624C138.628 126.46 137.214 126.402 137.224 125.417C137.222 125.25 137.227 125.084 137.225 124.917V124.909C137.232 122.734 137.24 120.566 137.256 118.397C137.264 117.318 138.931 117.293 138.923 118.373Z" fill="#494949"/>
<path d="M137.314 75.2489C137.268 74.1771 135.6 74.1985 135.646 75.2735C136.072 84.9806 137.029 104.31 137.455 114.017C137.502 115.089 139.17 115.067 139.123 113.992C138.697 104.285 137.74 84.956 137.314 75.2489Z" fill="#494949"/>
<path d="M118.709 30.4849C116.624 29.6179 114.874 31.5686 114.384 33.5788C114.093 34.7712 114.02 36.0732 113.995 37.3006C113.968 38.5875 114.076 39.9126 114.493 41.1289C115.111 42.9302 117.003 45.6422 119.075 44.3275C122.609 42.0839 122.702 32.1465 118.709 30.4849Z" fill="#494949"/>
<path d="M134.313 45.0716C136.073 45.1629 137.339 43.8799 137.907 42.5843C139.262 39.4976 139.298 36.0044 138.205 32.9129C137.766 31.6712 137.136 30.1 135.63 29.5411C134.059 28.9584 132.724 30.0207 132.093 31.1877C130.667 33.8211 129.006 44.7977 134.313 45.0716Z" fill="#494949"/>
<path d="M106.043 26.2036C105.635 26.1218 105.223 26.3481 105.118 26.7625C104.833 27.8883 104.655 29.0371 104.565 30.1954C104.534 30.5955 104.954 30.9702 105.341 30.948C105.785 30.9226 106.06 30.5995 106.093 30.1731C106.104 30.0286 106.117 29.8849 106.131 29.7405C106.138 29.6793 106.142 29.6166 106.15 29.5555C106.126 29.7333 106.154 29.5261 106.157 29.5031C106.189 29.2363 106.227 28.9704 106.272 28.7052C106.36 28.1749 106.471 27.6493 106.603 27.1285C106.7 26.7403 106.446 26.2846 106.043 26.2036Z" fill="#494949"/>
<path d="M114.132 10.2514C110.02 13.6938 107.121 18.4803 105.945 23.7106C105.73 24.6681 107.212 25.0396 107.429 24.0766C108.552 19.0837 111.306 14.5997 115.229 11.3161C115.982 10.6849 114.88 9.62583 114.132 10.2514Z" fill="#494949"/>
<path d="M128.091 53.9284C127.858 53.6672 127.425 53.6506 127.136 53.8133C126.874 53.961 126.69 54.2071 126.594 54.4841C126.544 54.535 126.49 54.5842 126.455 54.6533C125.923 55.7131 126.135 57.0795 127.023 57.8869C127.324 58.1608 127.861 58.2076 128.146 57.8702C129.109 56.7309 129.085 55.0399 128.091 53.9284Z" fill="#494949"/>
<path opacity="0.7" d="M206.034 94.25C205.301 93.1167 204.684 91.9333 204.184 90.7C203.717 89.4667 203.484 88.3167 203.484 87.25C203.484 86.45 203.684 85.5 204.084 84.4C204.484 83.3 204.934 82.1667 205.434 81L222.384 43.6C223.451 43.3333 224.684 43.2667 226.084 43.4C227.484 43.5333 228.801 43.8 230.034 44.2C231.301 44.6 232.267 45.1167 232.934 45.75L222.334 69C221.701 70.4333 220.934 72.15 220.034 74.15C219.134 76.1167 218.184 78.0667 217.184 80C216.217 81.9 215.301 83.4833 214.434 84.75L214.684 85.15C215.984 85.05 217.417 84.9667 218.984 84.9C220.584 84.8333 222.067 84.7833 223.434 84.75C224.834 84.7167 225.851 84.7 226.484 84.7H240.034C240.901 84.7 241.684 84.6833 242.384 84.65C243.117 84.6167 243.934 84.6 244.834 84.6H249.634C249.767 85.3333 249.834 86.0667 249.834 86.8C249.867 87.5 249.884 88.2 249.884 88.9C249.884 89.6 249.834 90.45 249.734 91.45C249.634 92.4167 249.451 93.3167 249.184 94.15H244.834C243.934 94.15 243.117 94.15 242.384 94.15C241.684 94.1167 240.901 94.1 240.034 94.1H229.134C228.201 94.1 227.234 94.1333 226.234 94.2C225.267 94.2333 224.317 94.25 223.384 94.25H206.034ZM229.034 99.85C229.034 98.9167 229.051 97.95 229.084 96.95C229.117 95.95 229.134 95 229.134 94.1V85.95C229.134 85.55 229.117 84.8667 229.084 83.9C229.051 82.9 229.034 82.1667 229.034 81.7V74.8C229.034 72.0333 229.701 69.8667 231.034 68.3C232.401 66.7333 234.267 65.95 236.634 65.95H239.584L240.134 66.5V79C240.134 79.9 240.117 80.85 240.084 81.85C240.051 82.85 240.034 83.8 240.034 84.7V94.1C240.034 95 240.051 95.95 240.084 96.95C240.117 97.95 240.134 98.9167 240.134 99.85V107.5C239.201 107.667 238.251 107.767 237.284 107.8C236.351 107.867 235.417 107.9 234.484 107.9C233.617 107.9 232.717 107.867 231.784 107.8C230.851 107.767 229.934 107.667 229.034 107.5V99.85Z" fill="#222222"/>
</svg>
